<svg xmlns="http://www.w3.org/2000/svg" width="26.681" height="26.681" viewBox="0 0 26.681 26.681">
  <g id="Group_2632" data-name="Group 2632" transform="translate(-1870.644 -17.128)">
    <g id="signs" transform="translate(1873.129 17.128)">
      <g id="Group_1166" data-name="Group 1166" transform="translate(-2.485)">
        <path id="Path_585" data-name="Path 585" d="M13.341,0A13.341,13.341,0,1,0,26.681,13.341,13.356,13.356,0,0,0,13.341,0Zm5.4,17.164a.556.556,0,0,1,0,.786l-.786.786a.556.556,0,0,1-.786,0l-3.824-3.824L9.517,18.736a.556.556,0,0,1-.786,0l-.786-.786a.556.556,0,0,1,0-.786l3.824-3.824L7.945,9.517a.556.556,0,0,1,0-.786l.786-.786a.556.556,0,0,1,.786,0l3.824,3.824,3.824-3.824a.556.556,0,0,1,.786,0l.786.786a.556.556,0,0,1,0,.786l-3.824,3.824Z" fill="#e07334"/>
      </g>
    </g>
  </g>
</svg>
