<svg xmlns="http://www.w3.org/2000/svg" width="16.877" height="20.229" viewBox="0 0 16.877 20.229">
  <g id="Group_3233" data-name="Group 3233" transform="translate(-1864 -662)">
    <g id="user_1_" data-name="user (1)" transform="translate(1864 662)">
      <path id="Path_2423" data-name="Path 2423" d="M91.9,9.745a4.714,4.714,0,0,0,3.445-1.427,4.714,4.714,0,0,0,1.427-3.445,4.715,4.715,0,0,0-1.427-3.445,4.871,4.871,0,0,0-6.89,0,4.714,4.714,0,0,0-1.427,3.445,4.714,4.714,0,0,0,1.428,3.445A4.715,4.715,0,0,0,91.9,9.745Zm0,0" transform="translate(-83.593)" fill="#929292"/>
      <path id="Path_2424" data-name="Path 2424" d="M16.836,253.1a12.035,12.035,0,0,0-.164-1.278,10.072,10.072,0,0,0-.314-1.285,6.348,6.348,0,0,0-.528-1.2,4.523,4.523,0,0,0-.8-1.038,3.513,3.513,0,0,0-1.144-.719,3.955,3.955,0,0,0-1.461-.264,1.483,1.483,0,0,0-.792.336c-.237.155-.515.334-.825.532a4.726,4.726,0,0,1-1.067.47,4.145,4.145,0,0,1-2.611,0,4.715,4.715,0,0,1-1.067-.47c-.307-.2-.585-.375-.826-.532a1.481,1.481,0,0,0-.792-.336,3.95,3.95,0,0,0-1.461.265,3.509,3.509,0,0,0-1.145.719,4.523,4.523,0,0,0-.8,1.038,6.361,6.361,0,0,0-.528,1.2A10.1,10.1,0,0,0,.2,251.822,11.992,11.992,0,0,0,.04,253.1c-.027.387-.04.789-.04,1.195a3.359,3.359,0,0,0,1,2.541,3.591,3.591,0,0,0,2.571.938h9.74a3.591,3.591,0,0,0,2.571-.938,3.358,3.358,0,0,0,1-2.541c0-.408-.014-.81-.041-1.195Zm0,0" transform="translate(0 -237.545)" fill="#929292"/>
    </g>
  </g>
</svg>
